<?xml version="1.0" encoding="UTF-8" standalone="no"?>
<svg width="16px" height="16px" viewBox="0 0 16 16" version="1.1" xmlns="http://www.w3.org/2000/svg" xmlns:xlink="http://www.w3.org/1999/xlink" xmlns:sketch="http://www.bohemiancoding.com/sketch/ns">
    <!-- Generator: bin/sketchtool 1.2 (196) - http://www.bohemiancoding.com/sketch -->
    <title>search-16</title>
    <desc>Created with bin/sketchtool.</desc>
    <defs></defs>
    <g id="Icons" stroke="none" stroke-width="1" fill="none" fill-rule="evenodd" sketch:type="MSPage">
        <g id="Icon-Set-Example" sketch:type="MSArtboardGroup" transform="translate(-120.000000, -72.000000)" fill="#000000">
            <g id="Search-16" sketch:type="MSLayerGroup" transform="translate(120.000000, 72.000000)">
                <path d="M10.1680609,9.10740077 C10.6919068,8.37178662 11,7.47187282 11,6.5 C11,4.01471863 8.98528137,2 6.5,2 C4.01471863,2 2,4.01471863 2,6.5 C2,8.98528137 4.01471863,11 6.5,11 C7.47187282,11 8.37178662,10.6919068 9.10740077,10.1680609 L12.9393398,14 L14,12.9393398 L10.1680609,9.10740077 L10.1680609,9.10740077 Z M3.5,6.5 C3.5,4.84314575 4.84314575,3.5 6.5,3.5 C8.15685425,3.5 9.5,4.84314575 9.5,6.5 C9.5,8.15685425 8.15685425,9.5 6.5,9.5 C4.84314575,9.5 3.5,8.15685425 3.5,6.5 Z" id="Magnifier" sketch:type="MSShapeGroup"></path>
            </g>
        </g>
    </g>
</svg>