<?xml version="1.0" encoding="UTF-8" standalone="no"?>
<svg width="24px" height="24px" viewBox="0 0 24 24" version="1.1" xmlns="http://www.w3.org/2000/svg" xmlns:xlink="http://www.w3.org/1999/xlink" xmlns:sketch="http://www.bohemiancoding.com/sketch/ns">
    <!-- Generator: sketchtool 3.4 (375) - http://www.bohemiancoding.com/sketch -->
    <title>search-24</title>
    <desc>Created with sketchtool.</desc>
    <defs></defs>
    <g id="Icons" stroke="none" stroke-width="1" fill="none" fill-rule="evenodd" sketch:type="MSPage">
        <g id="Icon-Set-Example" sketch:type="MSArtboardGroup" transform="translate(-96.000000, -72.000000)" fill="#000000">
            <g id="Search-24" sketch:type="MSLayerGroup" transform="translate(96.000000, 72.000000)">
                <path d="M10,17 C6.13400675,17 3,13.8659932 3,10 C3,6.13400675 6.13400675,3 10,3 C13.8659932,3 17,6.13400675 17,10 C17,13.8659932 13.8659932,17 10,17 Z M10,15 C12.7614237,15 15,12.7614237 15,10 C15,7.23857625 12.7614237,5 10,5 C7.23857625,5 5,7.23857625 5,10 C5,12.7614237 7.23857625,15 10,15 Z M19.5710678,20.9852814 L14.0857864,15.5 L15.5,14.0857864 L20.9852814,19.5710678 L19.5710678,20.9852814 Z" id="Magnifier" sketch:type="MSShapeGroup"></path>
            </g>
        </g>
    </g>
</svg>